# xmcd CD database file
#
# Track frame offsets:
#	150
#	22835
#	43402
#	59719
#	75255
#	96258
#	110671
#	123303
#	137497
#	157523
#	173238
#	187291
#	212324
#
# Disc length: 2985 seconds
#
# Revision: 0
# Processed by: cddbd v1.5.2PL0 Copyright (c) Steve Scherf et al.
# Submitted via: CDex 1.51
#
DISCID=a80ba70d
DTITLE=Patrick Watson - Close To Paradise
DYEAR=2006
DGENRE=Jazz
TTITLE0=Close to Paradise
TTITLE1=Daydreamer
TTITLE2=Slip Into Your Skin
TTITLE3=Giver
TTITLE4=Weight of the World
TTITLE5=The Storm
TTITLE6=Mr. Tom
TTITLE7=Luscious Life
TTITLE8=Drifters
TTITLE9=Man Under the Sea
TTITLE10=The Great Escape
TTITLE11=Sleeping Beauty
TTITLE12=Bright Shiny Lights
EXTD=YEAR: 2006
EXTT0=
EXTT1=
EXTT2=
EXTT3=
EXTT4=
EXTT5=
EXTT6=
EXTT7=
EXTT8=
EXTT9=
EXTT10=
EXTT11=
EXTT12=
PLAYORDER=
